<?xml version="1.0" encoding="UTF-8"?>
<svg width="128" height="128" viewBox="0 0 128 128" version="1.1" xmlns="http://www.w3.org/2000/svg">
    <!-- Background circle -->
    <circle cx="64" cy="64" r="60" fill="white" stroke="black" stroke-width="4"/>
    
    <!-- Abstract book/pages representation -->
    <g transform="translate(64, 64)">
        <!-- Left page -->
        <path d="M-30,-20 C-25,-25 -20,-28 -15,-30 L-15,30 C-20,28 -25,25 -30,20 Z" 
              fill="none" stroke="black" stroke-width="4"/>
        
        <!-- Right page -->
        <path d="M30,-20 C25,-25 20,-28 15,-30 L15,30 C20,28 25,25 30,20 Z" 
              fill="none" stroke="black" stroke-width="4"/>
        
        <!-- Center binding -->
        <path d="M-15,-30 C-10,-31 -5,-32 0,-32 C5,-32 10,-31 15,-30 L15,30 C10,31 5,32 0,32 C-5,32 -10,31 -15,30 Z" 
              fill="none" stroke="black" stroke-width="4"/>
        
        <!-- Reading lines (abstract text) -->
        <line x1="-10" y1="-15" x2="10" y2="-15" stroke="black" stroke-width="2"/>
        <line x1="-8" y1="-5" x2="8" y2="-5" stroke="black" stroke-width="2"/>
        <line x1="-10" y1="5" x2="10" y2="5" stroke="black" stroke-width="2"/>
        <line x1="-8" y1="15" x2="8" y2="15" stroke="black" stroke-width="2"/>
    </g>
</svg> 