<?xml version="1.0" encoding="UTF-8"?>
<svg width="128" height="128" viewBox="0 0 128 128" version="1.1" xmlns="http://www.w3.org/2000/svg">
    <!-- Background shadow for depth -->
    <path d="M25 25L105 25C115 25 123 33 123 43V105C123 115 115 123 105 123H25V25Z"
        fill="#e8e8e8"
    />
    
    <!-- Main scroll shape with curved edges -->
    <path d="M10 10C10 10 80 10 90 10C100 10 108 18 108 28V90C108 100 100 108 90 108C90 108 20 108 10 108C10 108 10 10 10 10Z"
        fill="white" 
        stroke="black" 
        stroke-width="12"
        stroke-linejoin="round"
    />
    
    <!-- Top right large dramatic curl -->
    <path d="M90 10C105 10 118 10 123 20C128 30 123 45 108 45H85C75 45 65 35 65 25C65 15 75 10 90 10Z"
        fill="white"
        stroke="black"
        stroke-width="12"
        stroke-linejoin="round"
    />

    <!-- Bottom large dramatic curl -->
    <path d="M10 108C30 108 43 108 48 103C58 93 48 80 33 80H10V108Z"
        fill="white"
        stroke="black"
        stroke-width="12"
        stroke-linejoin="round"
    />

    <!-- Thicker text lines -->
    <line x1="30" y1="40" x2="93" y2="40" stroke="black" stroke-width="14" stroke-linecap="round"/>
    <line x1="30" y1="65" x2="93" y2="65" stroke="black" stroke-width="14" stroke-linecap="round"/>
    <line x1="30" y1="90" x2="70" y2="90" stroke="black" stroke-width="14" stroke-linecap="round"/>

    <!-- Inner shadow lines for depth -->
    <path d="M90 10C85 12 83 15 83 20" stroke="#e0e0e0" stroke-width="6" stroke-linecap="round"/>
    <path d="M10 108C15 105 18 100 18 95" stroke="#e0e0e0" stroke-width="6" stroke-linecap="round"/>
</svg> 